<svg width="960" height="960" viewBox="0 0 960 960" fill="none" xmlns="http://www.w3.org/2000/svg">
<g clip-path="url(#clip0_583_1336)">
<path fill-rule="evenodd" clip-rule="evenodd" d="M682.206 558.52C663.668 401.94 553.554 434.052 553.554 434.052L550.634 409.664H530.759C523.445 423.076 508.199 432.304 490.573 432.304C472.783 432.304 457.416 422.904 450.173 409.289L448.38 409.664L434.553 411.092L436.275 439.112C436.275 439.112 309.234 444.359 297.797 588.803L297.497 589.756C317.698 596.299 337.514 603.978 356.849 612.756C396.573 630.566 431.439 650.439 450.835 661.494C460.75 667.146 466.623 670.493 467.034 670.082C467.034 670.082 536.272 619.523 614.881 585.395V585.384C636.337 576.07 658.491 567.97 680.129 562.47L682.206 558.52ZM585.274 444.226C584.446 444.189 583.745 444.83 583.708 445.658C583.672 446.486 584.313 447.186 585.14 447.223C602.305 447.986 618.709 454.517 631.701 465.761C644.692 477.004 653.509 492.302 656.727 509.179C656.882 509.993 657.667 510.527 658.481 510.372C659.295 510.217 659.829 509.431 659.674 508.618C656.33 491.077 647.166 475.178 633.664 463.492C620.162 451.807 603.112 445.019 585.274 444.226Z" fill="url(#paint0_linear_583_1336)"/>
<path d="M780.782 563.868C752.874 551.185 717.267 553.019 680.13 562.468L682.207 558.518L725.168 477.018L751.445 484.829L788.227 495.759L808.589 501.807L781.42 562.475L780.782 563.868Z" fill="url(#paint1_linear_583_1336)"/>
<path d="M528.239 265.215C528.675 264.566 544.549 241.247 552.308 247.588C559.966 253.859 544.093 271.232 543.282 272.113C544.224 271.353 570.046 250.668 575.192 262.368C580.429 274.281 544.913 291.441 544.913 291.441C544.913 291.441 476.272 285.961 463.873 293.589C456.083 298.389 457.643 320.221 459.882 335.77C459.892 335.851 459.902 335.942 459.912 336.034C460.034 337.351 460.155 343.216 452.679 342.314C444.535 341.332 445.669 334.129 445.75 333.653C445.284 334.463 433.594 354.602 433.128 330.533C432.652 305.988 452.912 269.753 463.164 261.892C473.416 254.031 486.757 263.792 486.757 263.792C486.757 263.792 489.857 245.68 502.276 245.913C514.483 246.156 510.268 261.371 510.127 261.878C510.562 261.229 525.241 239.978 532.281 241.628C539.342 243.283 528.513 264.668 528.239 265.215Z" fill="#171717"/>
<path d="M535.382 391.678C535.38 397.968 533.791 404.156 530.763 409.669C523.449 423.081 508.203 432.309 490.577 432.309C472.788 432.309 457.421 422.909 450.177 409.294C447.281 403.874 445.764 397.824 445.76 391.678C445.76 375.804 447.067 358.127 462.749 351.918V351.907C469.249 349.334 478.217 348.727 490.576 351.036C508.293 354.336 523.976 362.493 531.187 375.348C533.977 380.336 535.423 385.963 535.382 391.678ZM505.782 378.063C507.782 371.519 501.892 363.922 492.633 361.105C483.374 358.288 474.257 361.305 472.262 367.862C470.267 374.419 476.162 382.004 485.41 384.82C494.658 387.636 503.786 384.617 505.782 378.063Z" fill="#171717"/>
<path d="M267.767 515.154L297.801 588.809L297.501 589.762C266.037 579.753 234.701 573.862 207.992 576.662V576.652L195.309 529.452L218.892 524.792L256.748 517.326L267.767 515.154Z" fill="url(#paint2_linear_583_1336)"/>
<path d="M207.989 576.653L195.306 529.453L218.889 524.793L256.745 517.327L267.767 515.149L297.801 588.809C309.238 444.365 436.279 439.118 436.279 439.118L434.557 411.098L448.384 409.67" stroke="#171717" stroke-width="3" stroke-linecap="round" stroke-linejoin="round"/>
<path d="M553.555 434.053C553.555 434.053 663.669 401.941 682.207 558.521" stroke="#171717" stroke-width="3" stroke-linecap="round" stroke-linejoin="round"/>
<path d="M614.882 585.399C536.273 619.527 467.035 670.086 467.035 670.086C465.819 671.301 416.881 639.675 356.85 612.76C337.515 603.982 317.699 596.303 297.498 589.76C266.034 579.751 234.698 573.86 207.989 576.66C179.058 579.689 155.526 592.919 143.106 622.175C129.906 653.264 133.371 677.191 146.196 695.587C186.129 752.913 316.867 756.61 316.867 756.61" stroke="#171717" stroke-width="3" stroke-linecap="round" stroke-linejoin="round"/>
<path d="M421.205 751.599C421.205 751.599 421.266 751.599 421.377 751.609C424.933 751.781 482.907 754.496 554.223 751.163C582.648 749.836 613.19 747.547 643.245 743.768C717.681 734.378 789.138 715.768 818.145 679.706C832.135 662.293 836.238 640.806 825.996 614.317C816.13 588.789 800.347 572.763 780.786 563.869C752.878 551.186 717.271 553.02 680.134 562.469C658.496 567.969 636.342 576.069 614.886 585.383" stroke="#171717" stroke-width="3" stroke-linecap="round" stroke-linejoin="round"/>
<path d="M421.377 751.609C432.52 745.197 439.855 740.162 439.855 740.162C439.855 740.162 440.574 700.837 397.673 709.418C397.673 709.418 325.061 733.456 319.388 757.211C318.288 761.851 319.723 766.47 324.737 770.911C346.415 790.073 394.756 766.926 421.377 751.609Z" stroke="#171717" stroke-width="3" stroke-linecap="round" stroke-linejoin="round"/>
<path d="M553.555 750.767C553.555 750.767 553.788 750.909 554.224 751.162C561.801 755.599 631.506 795.572 649.061 775.626C667.629 754.526 643.297 744.193 643.297 744.193" stroke="#171717" stroke-width="3" stroke-linecap="round" stroke-linejoin="round"/>
<path d="M231.207 485.9C231.096 484.5 229.435 460.859 243.207 456.706C257.4 452.406 273.496 459.506 270.65 466.299C267.804 473.092 258.028 470.948 247.624 469.51C237.22 468.072 241.313 491.685 241.313 491.685C241.313 491.685 245.092 508.845 254.249 500.974C263.406 493.103 256.792 476.307 265.615 475.588C274.438 474.869 274.276 484.533 268.968 493.113C265.23 499.15 258.068 514.457 256.741 517.334C256.599 517.634 256.518 517.8 256.518 517.8" stroke="#171717" stroke-width="3" stroke-linecap="round" stroke-linejoin="round"/>
<path d="M215.759 486.678C215.757 486.665 215.754 486.651 215.749 486.638C215.384 485.047 203.269 431.946 211.656 429.829C220.024 427.722 230.812 483.829 231.207 485.898C231.212 485.918 231.215 485.939 231.217 485.959" stroke="#171717" stroke-width="3" stroke-linecap="round" stroke-linejoin="round"/>
<path d="M218.443 522.549C218.443 522.549 174.428 445.9 186.101 439.118C197.601 432.442 215.185 484.946 215.752 486.638" stroke="#171717" stroke-width="3" stroke-linecap="round" stroke-linejoin="round"/>
<path d="M782.847 455.993C782.848 455.985 782.852 455.978 782.858 455.973C782.858 455.963 782.868 455.943 782.868 455.933V455.923C783.253 454.484 789.209 431.651 776.468 425.023C763.298 418.185 746.179 422.187 747.718 429.389C749.257 436.591 759.267 436.289 769.761 436.804C780.255 437.319 771.879 459.749 771.879 459.749C771.879 459.749 764.99 475.916 757.443 466.505C749.896 457.094 759.49 441.788 750.95 439.458C742.41 437.128 740.79 446.64 744.426 456.051C747.252 463.375 752.105 482.622 752.105 482.622" stroke="#171717" stroke-width="3" stroke-linecap="round" stroke-linejoin="round"/>
<path d="M788.662 494.305C788.662 494.305 846.062 427.093 835.828 418.269C825.594 409.445 797.911 459.549 797.911 459.549C797.911 459.549 820.399 408.109 812.427 404.432C804.617 400.832 783.749 453.714 782.868 455.923" stroke="#171717" stroke-width="3" stroke-linecap="round" stroke-linejoin="round"/>
<path d="M680.119 562.48L680.129 562.47L682.206 558.52L725.167 477.023L751.444 484.834L788.226 495.764L808.588 501.812L781.419 562.48" stroke="#171717" stroke-width="3" stroke-linecap="round" stroke-linejoin="round"/>
<path d="M595.209 534.086L614.881 585.384V585.395" stroke="#171717" stroke-width="3" stroke-linecap="round" stroke-linejoin="round"/>
<path d="M374.021 554.863L356.85 612.756" stroke="#171717" stroke-width="3" stroke-linecap="round" stroke-linejoin="round"/>
<path d="M818.13 679.699L818.14 679.709L919.613 781.168C884.219 804.436 39.6074 792.23 39.6074 792.23L146.2 695.589" stroke="#171717" stroke-width="3" stroke-linecap="round" stroke-linejoin="round"/>
<path d="M528.473 409.67H530.763H550.638L553.555 434.053" stroke="#171717" stroke-width="3" stroke-linecap="round" stroke-linejoin="round"/>
<path d="M462.75 351.907C469.25 349.334 478.218 348.727 490.577 351.036C508.294 354.336 523.977 362.493 531.188 375.348C533.978 380.336 535.423 385.963 535.382 391.678C535.38 397.968 533.791 404.156 530.763 409.669C523.449 423.081 508.203 432.309 490.577 432.309C472.788 432.309 457.421 422.909 450.177 409.294C447.281 403.874 445.764 397.824 445.76 391.678C445.76 375.804 447.067 358.127 462.749 351.918" stroke="#171717" stroke-width="3" stroke-linecap="round" stroke-linejoin="round"/>
<path d="M505.782 378.063C503.782 384.617 494.669 387.636 485.41 384.82C476.151 382.004 470.266 374.406 472.262 367.862C474.258 361.318 483.374 358.289 492.633 361.105C501.892 363.921 507.778 371.519 505.782 378.063Z" stroke="#171717" stroke-width="3" stroke-linecap="round" stroke-linejoin="round"/>
<path d="M459.883 335.771C457.644 320.222 456.083 298.391 463.874 293.59C476.274 285.962 544.914 291.442 544.914 291.442C552.309 372.006 531.188 375.349 531.188 375.349" stroke="#171717" stroke-width="3" stroke-linecap="round" stroke-linejoin="round"/>
<path d="M462.749 351.919V351.908C462.678 351.594 461.199 344.858 459.912 336.035" stroke="#171717" stroke-width="3" stroke-linecap="round" stroke-linejoin="round"/>
<path d="M445.761 333.633C445.76 333.64 445.757 333.648 445.751 333.653C445.67 334.129 444.536 341.332 452.68 342.314C460.156 343.214 460.035 337.351 459.913 336.034C459.903 335.942 459.893 335.851 459.883 335.77" stroke="#171717" stroke-width="3" stroke-linecap="round" stroke-linejoin="round"/>
<path d="M510.127 261.883C510.268 261.376 514.483 246.161 502.276 245.918C489.856 245.685 486.757 263.797 486.757 263.797C486.757 263.797 473.415 254.022 463.164 261.897C452.913 269.772 432.652 305.997 433.128 330.538C433.594 354.607 445.284 334.468 445.75 333.658" stroke="#171717" stroke-width="3" stroke-linecap="round" stroke-linejoin="round"/>
<path d="M528.239 265.215C528.513 264.668 539.339 243.283 532.281 241.632C525.241 239.981 510.562 261.232 510.127 261.882L510.117 261.892" stroke="#171717" stroke-width="3" stroke-linecap="round" stroke-linejoin="round"/>
<path d="M543.253 272.144L543.263 272.133C543.273 272.133 543.272 272.123 543.282 272.113C544.093 271.232 559.966 253.859 552.308 247.588C544.549 241.247 528.676 264.566 528.24 265.215L528.229 265.225" stroke="#171717" stroke-width="3" stroke-linecap="round" stroke-linejoin="round"/>
<path d="M544.913 291.441C544.913 291.441 580.429 274.281 575.192 262.368C570.046 250.668 544.224 271.353 543.282 272.113" stroke="#171717" stroke-width="3" stroke-linecap="round" stroke-linejoin="round"/>
<path d="M475.077 315.52C475.077 315.52 483.424 326.481 490.577 315.52" stroke="#171717" stroke-width="3" stroke-linecap="round" stroke-linejoin="round"/>
<path d="M516.55 313.85C516.55 313.85 523.702 325.05 531.806 313.85" stroke="#171717" stroke-width="3" stroke-linecap="round" stroke-linejoin="round"/>
<path d="M500.584 348.413H509.884L505.234 296.689H527.52" stroke="#171717" stroke-width="3" stroke-linecap="round" stroke-linejoin="round"/>
<path d="M478.9 367.721C478.9 367.721 483.428 377.811 494.632 375.349" stroke="#171717" stroke-width="3" stroke-linecap="round" stroke-linejoin="round"/>
<path d="M606.017 279.258L616.917 263.287" stroke="#171717" stroke-width="3" stroke-linecap="round" stroke-linejoin="round"/>
<path d="M618.212 277.383L604.268 264.512" stroke="#171717" stroke-width="3" stroke-linecap="round" stroke-linejoin="round"/>
<path d="M536.856 179.864L544.322 165.898" stroke="#171717" stroke-width="3" stroke-linecap="round" stroke-linejoin="round"/>
<path d="M547.159 176.928L533.329 167.115" stroke="#171717" stroke-width="3" stroke-linecap="round" stroke-linejoin="round"/>
<path d="M459.467 226.971L451.959 216.246" stroke="#171717" stroke-width="3" stroke-linecap="round" stroke-linejoin="round"/>
<path d="M449.814 223.754L459.467 216.246" stroke="#171717" stroke-width="3" stroke-linecap="round" stroke-linejoin="round"/>
<path d="M372.538 178.754L362.138 167.719" stroke="#171717" stroke-width="3" stroke-linecap="round" stroke-linejoin="round"/>
<path d="M358.519 178.591L369.213 166.764" stroke="#171717" stroke-width="3" stroke-linecap="round" stroke-linejoin="round"/>
<path d="M538.84 431.837V420.037" stroke="#171717" stroke-width="3" stroke-linecap="round" stroke-linejoin="round"/>
<path d="M519.361 432.9L520.361 417.879" stroke="#171717" stroke-width="3" stroke-linecap="round" stroke-linejoin="round"/>
<path d="M466.977 432.909V421.109" stroke="#171717" stroke-width="3" stroke-linecap="round" stroke-linejoin="round"/>
<path d="M447.669 432.91L445.524 420.039" stroke="#171717" stroke-width="3" stroke-linecap="round" stroke-linejoin="round"/>
<path d="M724.326 498.566C745.601 505.24 767.117 511.064 788.875 516.04" stroke="#171717" stroke-width="3" stroke-linecap="round" stroke-linejoin="round"/>
<path d="M208.526 542.908C227.059 541.514 245.364 537.953 263.068 532.299" stroke="#171717" stroke-width="3" stroke-linecap="round" stroke-linejoin="round"/>
<path d="M637.519 538.024L641.809 528.371" stroke="#171717" stroke-width="3" stroke-linecap="round" stroke-linejoin="round"/>
<path d="M623.575 485.467L612.849 477.959" stroke="#171717" stroke-width="3" stroke-linecap="round" stroke-linejoin="round"/>
<path d="M577.452 516.571L583.888 506.918" stroke="#171717" stroke-width="3" stroke-linecap="round" stroke-linejoin="round"/>
<path d="M554.928 468.306L545.275 462.943" stroke="#171717" stroke-width="3" stroke-linecap="round" stroke-linejoin="round"/>
<path d="M564.77 574.637L572.229 564.945" stroke="#171717" stroke-width="3" stroke-linecap="round" stroke-linejoin="round"/>
<path d="M534.549 534.806C532.833 534.511 531.229 533.757 529.907 532.624C528.586 531.491 527.595 530.022 527.041 528.371" stroke="#171717" stroke-width="3" stroke-linecap="round" stroke-linejoin="round"/>
<path d="M486.282 495.12L494.863 484.395" stroke="#171717" stroke-width="3" stroke-linecap="round" stroke-linejoin="round"/>
<path d="M495.021 584.076L500.246 577.863" stroke="#171717" stroke-width="3" stroke-linecap="round" stroke-linejoin="round"/>
<path d="M506.116 623.677L501.831 617.477" stroke="#171717" stroke-width="3" stroke-linecap="round" stroke-linejoin="round"/>
<path d="M447.579 628.883C446.005 625.687 443.819 622.83 441.146 620.475" stroke="#171717" stroke-width="3" stroke-linecap="round" stroke-linejoin="round"/>
<path d="M446.954 559.832L455.054 552.682" stroke="#171717" stroke-width="3" stroke-linecap="round" stroke-linejoin="round"/>
<path d="M400.214 590.855C397.627 589.184 395.685 586.684 394.706 583.764" stroke="#171717" stroke-width="3" stroke-linecap="round" stroke-linejoin="round"/>
<path d="M432.378 524.833L425.923 518.416" stroke="#171717" stroke-width="3" stroke-linecap="round" stroke-linejoin="round"/>
<path d="M411.301 473.627C412.915 471.537 414.947 469.805 417.267 468.543" stroke="#171717" stroke-width="3" stroke-linecap="round" stroke-linejoin="round"/>
<path d="M371.429 509.488L365.347 502.711" stroke="#171717" stroke-width="3" stroke-linecap="round" stroke-linejoin="round"/>
<path d="M333.013 556.96L340.164 552.193" stroke="#171717" stroke-width="3" stroke-linecap="round" stroke-linejoin="round"/>
<path d="M269.647 567.879C266.133 566.202 262.989 563.839 260.4 560.93" stroke="#171717" stroke-width="3" stroke-linecap="round" stroke-linejoin="round"/>
<path d="M221.472 561.74L225.286 556.973" stroke="#171717" stroke-width="3" stroke-linecap="round" stroke-linejoin="round"/>
<path d="M424.253 707.27C400.76 713.351 379.775 726.665 364.265 745.329C361.717 748.411 359.221 752.62 361.094 756.153C363.251 760.224 369.141 759.828 373.606 758.693C396.924 752.749 418.958 742.587 438.617 728.71" stroke="#171717" stroke-width="3" stroke-linecap="round" stroke-linejoin="round"/>
<path d="M575.91 747.806C584.492 754.49 594.339 759.367 604.857 762.143C609.312 763.316 613.985 764.104 618.518 763.28C623.051 762.456 627.447 759.78 629.34 755.58C631.233 751.38 629.928 745.7 625.879 743.504" stroke="#171717" stroke-width="3" stroke-linecap="round" stroke-linejoin="round"/>
<path d="M390.527 758.745L370.861 731.318" stroke="#171717" stroke-width="3" stroke-linecap="round" stroke-linejoin="round"/>
<path d="M414.353 747.799L392.095 718.25" stroke="#171717" stroke-width="3" stroke-linecap="round" stroke-linejoin="round"/>
<path d="M595.55 762.821L606.496 746.121" stroke="#171717" stroke-width="3" stroke-linecap="round" stroke-linejoin="round"/>
<path d="M239.589 380.352L231.009 370.34" stroke="#171717" stroke-width="3" stroke-linecap="round" stroke-linejoin="round"/>
<path d="M229.815 380.623L240.43 371.199" stroke="#171717" stroke-width="3" stroke-linecap="round" stroke-linejoin="round"/>
<path d="M726.544 401.09L722.968 388.934" stroke="#171717" stroke-width="3" stroke-linecap="round" stroke-linejoin="round"/>
<path d="M719.393 396.799L728.693 392.508" stroke="#171717" stroke-width="3" stroke-linecap="round" stroke-linejoin="round"/>
<path d="M856.326 332.086L869.2 321.361" stroke="#171717" stroke-width="3" stroke-linecap="round" stroke-linejoin="round"/>
<path d="M868.126 334.232L858.473 322.432" stroke="#171717" stroke-width="3" stroke-linecap="round" stroke-linejoin="round"/>
<path d="M160.215 317.069C160.173 315.256 159.772 313.47 159.035 311.813C158.299 310.157 157.242 308.662 155.925 307.416" stroke="#171717" stroke-width="3" stroke-linecap="round" stroke-linejoin="round"/>
<path d="M151.552 314.77L165.501 307.27" stroke="#171717" stroke-width="3" stroke-linecap="round" stroke-linejoin="round"/>
<path fill-rule="evenodd" clip-rule="evenodd" d="M825.991 614.317C816.125 588.789 800.342 572.763 780.781 563.869C752.873 551.186 717.266 553.02 680.129 562.475C658.491 567.976 636.337 576.07 614.881 585.389V585.4C536.272 619.528 467.034 670.087 467.034 670.087C466.623 670.498 460.751 667.151 450.835 661.499C431.439 650.444 396.573 630.571 356.849 612.761C337.514 603.983 317.699 596.304 297.497 589.761C266.033 579.751 234.701 573.855 207.988 576.661C179.057 579.69 155.525 592.92 143.105 622.176C129.906 653.265 133.37 677.188 146.195 695.588C186.128 752.911 316.866 756.611 316.866 756.611L319.388 757.211C325.061 733.456 397.673 709.418 397.673 709.418C440.574 700.837 439.855 740.162 439.855 740.162C439.855 740.162 432.52 745.197 421.377 751.609C424.933 751.781 482.907 754.496 554.223 751.163C582.645 749.836 613.19 747.547 643.245 743.768C717.681 734.378 789.14 715.769 818.14 679.706C832.13 662.293 836.233 640.807 825.991 614.317ZM672.889 577.282C692.765 572.46 713.015 568.811 733.282 569.692C753.544 570.573 773.921 576.263 789.872 588.509C805.825 600.758 816.793 620.091 816.286 640.016C816.265 640.845 816.919 641.533 817.747 641.554C818.575 641.575 819.264 640.921 819.285 640.093C819.821 619.034 808.263 598.848 791.699 586.13C775.132 573.411 754.108 567.594 733.412 566.695C712.721 565.796 692.147 569.523 672.182 574.367C671.376 574.562 670.882 575.373 671.077 576.178C671.273 576.983 672.084 577.478 672.889 577.282Z" fill="#171717"/>
<g opacity="0.1">
<path d="M542.758 289.041C532.658 286.054 520.934 287.009 510.515 287.051C499.861 287.093 488.764 287.363 478.302 289.551C469.16 291.464 461.24 296.577 457.042 305.105C452.342 314.65 453.134 326.305 454.826 336.495C456.16 344.527 469.683 342.715 469.098 334.563C468.513 326.411 466.954 318.437 469.838 310.499C472.746 302.499 479.823 300.492 487.513 299.016C496.355 297.267 505.312 296.167 514.313 295.724C523.413 295.333 532.821 296.724 541.846 295.761C545.524 295.37 546.683 290.201 542.756 289.039L542.758 289.041Z" fill="#171717"/>
</g>
<g opacity="0.1">
<path d="M436.366 414.081C434.526 423.395 434.805 432.819 434.727 442.275L441.852 435.15C427.343 434.75 412.333 439.198 398.952 444.503C378.058 452.595 359.088 464.969 343.261 480.829C327.434 496.69 315.1 515.686 307.052 536.597C300.832 552.645 297.203 569.579 296.301 586.767C295.701 597.367 312.218 597.347 312.801 586.767C314.142 560.795 322.468 535.667 336.903 514.034C351.337 492.401 371.344 475.067 394.811 463.859C410.511 456.237 426.984 453.273 443.748 449.145C445.246 448.719 446.565 447.82 447.508 446.581C448.451 445.343 448.967 443.832 448.979 442.275C448.571 432.829 448.571 423.323 446.402 414.081C445.263 409.227 437.369 409.012 436.368 414.081H436.366Z" fill="#171717"/>
</g>
<g opacity="0.1">
<path d="M200.159 530.487C193.765 534.649 197.638 543.349 199.015 549.274C200.877 557.289 202.298 565.412 204.087 573.448C206.23 583.078 220.866 578.986 218.843 569.38C217.011 560.68 214.408 552.267 211.803 543.78C210.712 540.227 209.691 534.795 206.94 532.144C205.5 530.756 202.11 529.217 200.159 530.487Z" fill="#171717"/>
</g>
</g>
<defs>
<linearGradient id="paint0_linear_583_1336" x1="489.852" y1="409.289" x2="489.852" y2="670.116" gradientUnits="userSpaceOnUse">
<stop stop-color="#FF9A34"/>
<stop offset="1" stop-color="#EB6421"/>
</linearGradient>
<linearGradient id="paint1_linear_583_1336" x1="744.359" y1="477.018" x2="744.359" y2="563.868" gradientUnits="userSpaceOnUse">
<stop stop-color="#FF9A34"/>
<stop offset="1" stop-color="#EB6421"/>
</linearGradient>
<linearGradient id="paint2_linear_583_1336" x1="246.555" y1="515.154" x2="246.555" y2="589.762" gradientUnits="userSpaceOnUse">
<stop stop-color="#FF9A34"/>
<stop offset="1" stop-color="#EB6421"/>
</linearGradient>
<clipPath id="clip0_583_1336">
<rect width="884" height="633" fill="white" transform="translate(38 164)"/>
</clipPath>
</defs>
</svg>
