<svg width="24" height="24" viewBox="0 0 24 24" fill="none" xmlns="http://www.w3.org/2000/svg">
<g clip-path="url(#clip0_201_369)">
<path d="M17.375 9.60006C17.5898 9.60006 17.8022 9.64086 18.0002 9.71886V5.40006C18.0002 4.92267 17.8106 4.46483 17.473 4.12727C17.1354 3.7897 16.6776 3.60006 16.2002 3.60006H12.6002V3.00006C12.6036 2.92036 12.5904 2.84082 12.5614 2.76649C12.5325 2.69216 12.4884 2.62465 12.432 2.56824C12.3756 2.51184 12.3081 2.46776 12.2338 2.43881C12.1594 2.40986 12.0799 2.39666 12.0002 2.40006C11.669 2.40006 11.4002 2.67606 11.4002 3.00006V3.60006H7.8002C7.32281 3.60006 6.86497 3.7897 6.5274 4.12727C6.18984 4.46483 6.0002 4.92267 6.0002 5.40006V10.2001C6.0002 10.6774 6.18984 11.1353 6.5274 11.4729C6.86497 11.8104 7.32281 12.0001 7.8002 12.0001H15.353L15.7586 10.7533L15.7634 10.7389C15.8807 10.4051 16.0991 10.1161 16.3881 9.91208C16.6771 9.70802 17.0212 9.59897 17.375 9.60006ZM8.4002 7.80006C8.4002 7.4818 8.52662 7.17657 8.75167 6.95153C8.97671 6.72649 9.28194 6.60006 9.6002 6.60006C9.91846 6.60006 10.2237 6.72649 10.4487 6.95153C10.6738 7.17657 10.8002 7.4818 10.8002 7.80006C10.8002 8.11832 10.6738 8.42354 10.4487 8.64859C10.2237 8.87363 9.91846 9.00006 9.6002 9.00006C9.28194 9.00006 8.97671 8.87363 8.75167 8.64859C8.52662 8.42354 8.4002 8.11832 8.4002 7.80006ZM13.2002 7.80006C13.2002 7.4818 13.3266 7.17657 13.5517 6.95153C13.7767 6.72649 14.0819 6.60006 14.4002 6.60006C14.7185 6.60006 15.0237 6.72649 15.2487 6.95153C15.4738 7.17657 15.6002 7.4818 15.6002 7.80006C15.6002 8.11832 15.4738 8.42354 15.2487 8.64859C15.0237 8.87363 14.7185 9.00006 14.4002 9.00006C14.0819 9.00006 13.7767 8.87363 13.5517 8.64859C13.3266 8.42354 13.2002 8.11832 13.2002 7.80006ZM12.0002 21.6001C14.0918 21.6001 15.6506 21.3289 16.8062 20.8657C16.8216 20.6828 16.8691 20.504 16.9466 20.3377C16.6812 20.265 16.4373 20.1291 16.2359 19.9417C16.0344 19.7542 15.8814 19.5207 15.7898 19.2613L15.785 19.2469L15.3638 17.9509L15.3218 17.8429C15.2497 17.6712 15.1449 17.5151 15.0134 17.3833L14.9366 17.3113C14.794 17.1874 14.6285 17.0928 14.4494 17.0329L13.1534 16.6129L13.1402 16.6069C12.8697 16.5115 12.6276 16.3495 12.4362 16.1358C12.2448 15.9222 12.1103 15.6638 12.0452 15.3844C11.98 15.1051 11.9863 14.8139 12.0633 14.5376C12.1404 14.2613 12.2858 14.0089 12.4862 13.8037H6.371C5.79515 13.804 5.243 14.033 4.83594 14.4402C4.42887 14.8475 4.2002 15.3998 4.2002 15.9757V16.8025H4.2062C4.247 17.7385 4.5038 18.9109 5.5538 19.8685C6.701 20.9161 8.681 21.6001 12.0002 21.6001ZM18.2714 12.4237L17.8538 11.1397C17.8192 11.0401 17.7544 10.9538 17.6685 10.8928C17.5826 10.8317 17.4798 10.7989 17.3744 10.7989C17.269 10.7989 17.1662 10.8317 17.0803 10.8928C16.9944 10.9538 16.9296 11.0401 16.895 11.1397L16.4774 12.4237C16.3504 12.8119 16.1351 13.1653 15.8484 13.4562C15.5616 13.7471 15.2113 13.9675 14.825 14.1001L13.5398 14.5177C13.4407 14.5526 13.3548 14.6174 13.2941 14.7031C13.2334 14.7889 13.2007 14.8914 13.2007 14.9965C13.2007 15.1015 13.2334 15.204 13.2941 15.2898C13.3548 15.3756 13.4407 15.4404 13.5398 15.4753L14.825 15.8929C15.217 16.0226 15.5731 16.2426 15.8647 16.535C16.1562 16.8274 16.3751 17.1841 16.5038 17.5765L16.9214 18.8605C16.9563 18.9596 17.0211 19.0454 17.1069 19.1062C17.1926 19.1669 17.2951 19.1995 17.4002 19.1995C17.5053 19.1995 17.6078 19.1669 17.6935 19.1062C17.7793 19.0454 17.8441 18.9596 17.879 18.8605L18.2978 17.5765C18.4273 17.1856 18.6465 16.8304 18.9378 16.5393C19.229 16.2482 19.5844 16.0293 19.9754 15.9001L21.2618 15.4825C21.3604 15.447 21.4456 15.382 21.5059 15.2963C21.5661 15.2106 21.5985 15.1084 21.5985 15.0037C21.5985 14.8989 21.5661 14.7967 21.5059 14.711C21.4456 14.6253 21.3604 14.5603 21.2618 14.5249L21.2354 14.5189L19.949 14.1001C19.558 13.9708 19.2026 13.7519 18.9114 13.4608C18.6201 13.1698 18.4009 12.8146 18.2714 12.4237ZM22.8206 20.3581L23.7398 20.6557L23.7578 20.6605C23.8107 20.6791 23.8586 20.7098 23.8977 20.7501C23.9368 20.7904 23.966 20.8392 23.9831 20.8926C24.0002 20.9461 24.0047 21.0028 23.9962 21.0583C23.9877 21.1138 23.9665 21.1665 23.9342 21.2125C23.8906 21.2738 23.8289 21.32 23.7578 21.3445L22.8398 21.6421C22.5604 21.735 22.3065 21.8917 22.0983 22.0998C21.89 22.3079 21.733 22.5616 21.6398 22.8409L21.3422 23.7577C21.3174 23.8285 21.2711 23.89 21.2098 23.9334C21.1486 23.9768 21.0753 24.0002 21.0002 24.0002C20.9251 24.0002 20.8518 23.9768 20.7906 23.9334C20.7293 23.89 20.683 23.8285 20.6582 23.7577L20.3594 22.8409C20.2668 22.5611 20.1102 22.3067 19.9021 22.098C19.694 21.8892 19.4401 21.7319 19.1606 21.6385L18.2426 21.3397C18.1898 21.3208 18.142 21.2901 18.103 21.2497C18.0641 21.2094 18.035 21.1606 18.018 21.1071C18.0011 21.0537 17.9967 20.997 18.0053 20.9416C18.0138 20.8862 18.0351 20.8335 18.0674 20.7877C18.1106 20.7265 18.1719 20.6804 18.2426 20.6557L19.1606 20.3581C19.4363 20.2627 19.6862 20.1051 19.8911 19.8973C20.0959 19.6896 20.25 19.4375 20.3414 19.1605L20.6402 18.2425C20.665 18.1716 20.7113 18.1102 20.7726 18.0667C20.8338 18.0233 20.9071 17.9999 20.9822 17.9999C21.0573 17.9999 21.1306 18.0233 21.1918 18.0667C21.2531 18.1102 21.2994 18.1716 21.3242 18.2425L21.623 19.1605C21.7162 19.4394 21.8731 19.6928 22.0812 19.9006C22.2892 20.1085 22.5416 20.2651 22.8206 20.3581Z" fill="black"/>
</g>
<defs>
<clipPath id="clip0_201_369">
<rect width="24" height="24" fill="white"/>
</clipPath>
</defs>
</svg>
