<svg width="24" height="24" viewBox="0 0 24 24" fill="none" xmlns="http://www.w3.org/2000/svg">
	<g clip-path="url(#clip0_201_371)">
		<path d="M14.4002 6.60002C14.0819 6.60002 13.7767 6.72645 13.5517 6.9515C13.3266 7.17654 13.2002 7.48176 13.2002 7.80002C13.2002 8.11828 13.3266 8.42351 13.5517 8.64855C13.7767 8.8736 14.0819 9.00002 14.4002 9.00002C14.7185 9.00002 15.0237 8.8736 15.2487 8.64855C15.4738 8.42351 15.6002 8.11828 15.6002 7.80002C15.6002 7.48176 15.4738 7.17654 15.2487 6.9515C15.0237 6.72645 14.7185 6.60002 14.4002 6.60002ZM8.4002 7.80002C8.4002 7.48176 8.52662 7.17654 8.75167 6.9515C8.97671 6.72645 9.28194 6.60002 9.6002 6.60002C9.91846 6.60002 10.2237 6.72645 10.4487 6.9515C10.6738 7.17654 10.8002 7.48176 10.8002 7.80002C10.8002 8.11828 10.6738 8.42351 10.4487 8.64855C10.2237 8.8736 9.91846 9.00002 9.6002 9.00002C9.28194 9.00002 8.97671 8.8736 8.75167 8.64855C8.52662 8.42351 8.4002 8.11828 8.4002 7.80002ZM12.6002 3.00002C12.6002 2.84089 12.537 2.68828 12.4245 2.57576C12.3119 2.46324 12.1593 2.40002 12.0002 2.40002C11.8411 2.40002 11.6885 2.46324 11.5759 2.57576C11.4634 2.68828 11.4002 2.84089 11.4002 3.00002V3.60002H7.8002C7.32281 3.60002 6.86497 3.78967 6.5274 4.12723C6.18984 4.4648 6.0002 4.92263 6.0002 5.40002V10.2C6.0002 10.6774 6.18984 11.1353 6.5274 11.4728C6.86497 11.8104 7.32281 12 7.8002 12H15.353L15.7442 10.8H7.8002C7.64107 10.8 7.48845 10.7368 7.37593 10.6243C7.26341 10.5118 7.2002 10.3592 7.2002 10.2V5.40002C7.2002 5.24089 7.26341 5.08828 7.37593 4.97576C7.48845 4.86324 7.64107 4.80002 7.8002 4.80002H16.2002C16.3593 4.80002 16.5119 4.86324 16.6245 4.97576C16.737 5.08828 16.8002 5.24089 16.8002 5.40002V9.69962C17.1893 9.56029 17.6158 9.56711 18.0002 9.71882V5.40002C18.0002 4.92263 17.8106 4.4648 17.473 4.12723C17.1354 3.78967 16.6776 3.60002 16.2002 3.60002H12.6002V3.00002ZM10.2002 13.8H12.4898C12.1758 14.119 11.9999 14.5488 12.0002 14.9964V15.0036H6.3722C6.1144 15.0036 5.86717 15.106 5.68489 15.2883C5.5026 15.4706 5.4002 15.7178 5.4002 15.9756V16.5C5.4002 17.328 5.5574 18.2472 6.3626 18.9828C7.1882 19.7352 8.8082 20.4 12.0002 20.4C13.8602 20.4 15.1862 20.1744 16.133 19.836C16.3498 20.0789 16.6324 20.2536 16.9466 20.3388C16.8692 20.5048 16.8217 20.6831 16.8062 20.8656C15.707 21.306 14.2418 21.5736 12.3002 21.5976V21.6H11.7002V21.5976C8.561 21.558 6.6662 20.8836 5.5538 19.8696C4.5038 18.9096 4.247 17.7372 4.2062 16.8024H4.2002V15.9744C4.2002 14.7756 5.1722 13.8036 6.3722 13.8036H10.2002V13.8ZM17.8538 11.1384L18.2714 12.4236C18.401 12.8147 18.6204 13.1699 18.9119 13.461C19.2034 13.7521 19.559 13.971 19.9502 14.1L21.2354 14.5176L21.2606 14.5248C21.3597 14.5597 21.4456 14.6245 21.5063 14.7103C21.567 14.796 21.5996 14.8985 21.5996 15.0036C21.5996 15.1087 21.567 15.2112 21.5063 15.297C21.4456 15.3827 21.3597 15.4475 21.2606 15.4824L19.9754 15.9C19.5842 16.0291 19.2286 16.2479 18.9371 16.539C18.6456 16.8301 18.4262 17.1854 18.2966 17.5764L17.879 18.8604C17.8441 18.9595 17.7793 19.0454 17.6935 19.1061C17.6078 19.1669 17.5053 19.1995 17.4002 19.1995C17.2951 19.1995 17.1926 19.1669 17.1069 19.1061C17.0211 19.0454 16.9563 18.9595 16.9214 18.8604L16.5026 17.5764C16.3535 17.1222 16.0839 16.717 15.7226 16.404C15.46 16.1762 15.1549 16.0025 14.825 15.8928L13.5398 15.4752C13.4407 15.4403 13.3548 15.3755 13.2941 15.2898C13.2334 15.204 13.2007 15.1015 13.2007 14.9964C13.2007 14.8913 13.2334 14.7888 13.2941 14.7031C13.3548 14.6173 13.4407 14.5525 13.5398 14.5176L14.825 14.1C15.2113 13.9675 15.5616 13.7471 15.8484 13.4562C16.1351 13.1653 16.3504 12.8118 16.4774 12.4236L16.895 11.1396C16.9296 11.0401 16.9944 10.9538 17.0803 10.8927C17.1662 10.8317 17.269 10.7989 17.3744 10.7989C17.4798 10.7989 17.5826 10.8317 17.6685 10.8927C17.7544 10.9538 17.8192 11.0401 17.8538 11.1396M23.7398 20.6568L22.8206 20.3592C22.5418 20.2661 22.2885 20.1094 22.0806 19.9016C21.8728 19.6937 21.7161 19.4404 21.623 19.1616L21.323 18.2436C21.2982 18.1727 21.2519 18.1113 21.1906 18.0679C21.1294 18.0244 21.0561 18.0011 20.981 18.0011C20.9059 18.0011 20.8326 18.0244 20.7714 18.0679C20.7101 18.1113 20.6638 18.1727 20.639 18.2436L20.3414 19.1616C20.25 19.4386 20.0959 19.6908 19.8911 19.8985C19.6862 20.1062 19.4363 20.2639 19.1606 20.3592L18.2426 20.6568C18.1898 20.6756 18.142 20.7064 18.103 20.7468C18.0641 20.7871 18.035 20.8359 18.018 20.8894C18.0011 20.9428 17.9967 20.9995 18.0053 21.0549C18.0138 21.1103 18.0351 21.163 18.0674 21.2088C18.1106 21.2688 18.1718 21.3168 18.2426 21.3408L19.1606 21.6396C19.4403 21.7329 19.6945 21.8902 19.9028 22.0989C20.1111 22.3076 20.2679 22.5621 20.3606 22.842L20.6582 23.7588C20.683 23.8297 20.7293 23.8911 20.7906 23.9346C20.8518 23.978 20.9251 24.0014 21.0002 24.0014C21.0753 24.0014 21.1486 23.978 21.2098 23.9346C21.2711 23.8911 21.3174 23.8297 21.3422 23.7588L21.641 22.842C21.7341 22.5629 21.8909 22.3092 22.0989 22.1012C22.307 21.8931 22.5607 21.7363 22.8398 21.6432L23.7578 21.3456C23.8287 21.3208 23.8901 21.2745 23.9335 21.2133C23.977 21.152 24.0003 21.0787 24.0003 21.0036C24.0003 20.9285 23.977 20.8553 23.9335 20.794C23.8901 20.7327 23.8287 20.6865 23.7578 20.6616L23.7398 20.6568Z" fill="#f97316" />
	</g>
	<defs>
		<clipPath id="clip0_201_371">
			<rect width="24" height="24" fill="white" />
		</clipPath>
	</defs>
</svg>
