<svg width="250" height="250" viewBox="0 0 250 250" fill="none" xmlns="http://www.w3.org/2000/svg">
<rect width="250" height="250" fill="#F97316"/>
<path d="M80.6002 65.1833C80.6221 65.5707 80.7654 65.9415 81.0097 66.2431C81.254 66.5446 81.587 66.7617 81.9615 66.8636C82.3359 66.9655 82.733 66.9471 83.0964 66.8109C83.4598 66.6747 83.7712 66.4276 83.9865 66.1047C84.2018 65.7818 84.31 65.3993 84.296 65.0115C84.2819 64.6237 84.1462 64.2501 83.9082 63.9436C83.6701 63.6371 83.3416 63.4132 82.9693 63.3037C82.597 63.1942 82.1996 63.2045 81.8335 63.3333H75.6668C72.3958 63.3333 69.2588 64.6327 66.9458 66.9456C64.6329 69.2586 63.3335 72.3956 63.3335 75.6666V106.5C63.3335 116.313 67.2317 125.724 74.1705 132.663C81.1094 139.602 90.5205 143.5 100.333 143.5C110.147 143.5 119.558 139.602 126.496 132.663C133.435 125.724 137.333 116.313 137.333 106.5V75.6666C137.333 72.3956 136.034 69.2586 133.721 66.9456C131.408 64.6327 128.271 63.3333 125 63.3333H118.833C118.712 63.4547 118.616 63.599 118.55 63.7577C118.484 63.9164 118.45 64.0865 118.45 64.2583C118.45 64.4301 118.484 64.6002 118.55 64.7589C118.616 64.9176 118.712 65.0618 118.833 65.1833C118.955 65.3047 119.099 65.4011 119.258 65.4668C119.417 65.5326 119.587 65.5664 119.758 65.5664C119.93 65.5664 120.1 65.5326 120.259 65.4668C120.418 65.4011 120.562 65.3047 120.683 65.1833" stroke="white" stroke-width="10" stroke-linecap="round" stroke-linejoin="round"/>
<path d="M100.333 143.5V149.667C100.333 159.48 104.232 168.891 111.171 175.83C118.109 182.768 127.52 186.667 137.333 186.667C147.147 186.667 156.558 182.768 163.496 175.83C170.435 168.891 174.333 159.48 174.333 149.667V125" stroke="white" stroke-width="10" stroke-linecap="round" stroke-linejoin="round"/>
<path d="M174.333 125C181.145 125 186.667 119.478 186.667 112.667C186.667 105.855 181.145 100.333 174.333 100.333C167.522 100.333 162 105.855 162 112.667C162 119.478 167.522 125 174.333 125Z" stroke="white" stroke-width="10" stroke-linecap="round" stroke-linejoin="round"/>
</svg>
