<svg width="400" height="400" viewBox="0 0 400 400" fill="none" xmlns="http://www.w3.org/2000/svg">
<circle cx="200" cy="200" r="200" fill="#F97316"/>
<path d="M169.924 128.446C98.9248 96.4457 70.4271 171.446 98.9244 205.446C132.85 239.372 164.254 270.776 169.238 275.76C169.629 276.15 170.241 276.13 170.631 275.739L200.717 245.653C201.108 245.263 201.108 244.63 200.717 244.239L160.131 203.653C159.501 203.023 159.948 201.946 160.839 201.946H241.01C241.901 201.946 242.347 200.869 241.717 200.239L201.131 159.653C200.741 159.263 200.729 158.642 201.119 158.251C203.478 155.893 211.468 147.902 219.331 140.04C227.004 132.366 235.819 125.505 246.266 122.566C307.135 105.441 325.696 178.789 303.924 201.946L200.424 305.446" stroke="white" stroke-width="16" stroke-linecap="round"/>
</svg>
