<svg width="200" height="200" viewBox="0 0 200 200" fill="none" xmlns="http://www.w3.org/2000/svg">
	<g filter="url(#filter0_i_197_387)">
		<rect width="200" height="200" rx="45" fill="#01090B" />
	</g>
	<path d="M80.3017 94.594C81.0873 95.3786 82.1524 95.8189 83.2627 95.8181C84.3729 95.8173 85.4374 95.3755 86.222 94.5898C87.0065 93.8042 87.4468 92.7391 87.446 91.6288C87.4452 90.5186 87.0034 89.4541 86.2178 88.6696L73.6659 76.1177C72.8803 75.3332 71.8152 74.8929 70.7049 74.8937C69.5946 74.8945 68.5302 75.3363 67.7456 76.1219C66.9611 76.9075 66.5208 77.9726 66.5216 79.0829C66.5224 80.1932 66.9642 81.2577 67.7498 82.0422L80.3017 94.594ZM141.421 141.421C144.141 138.701 146.298 135.472 147.77 131.919C149.242 128.365 150 124.557 150 120.71C150 116.864 149.242 113.055 147.77 109.502C146.298 105.948 144.141 102.719 141.421 99.9997L99.9997 58.5786C94.5069 53.0858 87.0571 50 79.2891 50C71.5212 50 64.0714 53.0858 58.5786 58.5786C53.0858 64.0714 50 71.5212 50 79.2891C50 87.0571 53.0858 94.5069 58.5786 99.9997L99.9997 141.421C102.719 144.141 105.948 146.298 109.502 147.77C113.055 149.242 116.864 150 120.71 150C124.557 150 128.365 149.242 131.919 147.77C135.472 146.298 138.701 144.141 141.421 141.421ZM111.832 82.2514L82.243 111.832L64.5031 94.092C60.6077 90.1634 58.4271 84.8518 58.4384 79.3194C58.4497 73.787 60.6521 68.4844 64.5635 64.5718C68.4749 60.6593 73.777 58.4554 79.3094 58.4426C84.8417 58.4297 90.154 60.6088 94.0836 64.5031L111.832 82.2514ZM105.916 135.505L88.1675 117.756L117.74 88.1675L135.488 105.916C137.445 107.855 138.999 110.162 140.062 112.703C141.125 115.245 141.676 117.971 141.682 120.726C141.689 123.481 141.151 126.21 140.1 128.757C139.049 131.303 137.505 133.617 135.557 135.565C133.609 137.514 131.296 139.058 128.75 140.11C126.203 141.162 123.475 141.7 120.72 141.695C117.965 141.689 115.238 141.139 112.696 140.077C110.154 139.015 107.856 137.461 105.916 135.505Z" fill="white" />
	<defs>
		<filter id="filter0_i_197_387" x="0" y="0" width="202" height="204" filterUnits="userSpaceOnUse" color-interpolation-filters="sRGB">
			<feFlood flood-opacity="0" result="BackgroundImageFix" />
			<feBlend mode="normal" in="SourceGraphic" in2="BackgroundImageFix" result="shape" />
			<feColorMatrix in="SourceAlpha" type="matrix" values="0 0 0 0 0 0 0 0 0 0 0 0 0 0 0 0 0 0 127 0" result="hardAlpha" />
			<feMorphology radius="6" operator="erode" in="SourceAlpha" result="effect1_innerShadow_197_387" />
			<feOffset dx="2" dy="4" />
			<feGaussianBlur stdDeviation="4.45" />
			<feComposite in2="hardAlpha" operator="arithmetic" k2="-1" k3="1" />
			<feColorMatrix type="matrix" values="0 0 0 0 1 0 0 0 0 1 0 0 0 0 1 0 0 0 0.09 0" />
			<feBlend mode="normal" in2="shape" result="effect1_innerShadow_197_387" />
		</filter>
	</defs>
</svg>
