<svg width="436" height="436" viewBox="0 0 436 436" fill="none" xmlns="http://www.w3.org/2000/svg">
<circle cx="218" cy="218" r="218" fill="white"/>
<circle cx="217.5" cy="218.5" r="185.5" fill="#1E252B"/>
<path fill-rule="evenodd" clip-rule="evenodd" d="M258 108C258 85.9086 240.091 68 218 68C195.909 68 178 85.9086 178 108V178L107 178C84.9086 178 67 195.909 67 218C67 240.091 84.9086 258 107 258H178V329C178 351.091 195.909 369 218 369C240.091 369 258 351.091 258 329V258H328C350.091 258 368 240.091 368 218C368 195.909 350.091 178 328 178L258 178V108Z" fill="white"/>
<path fill-rule="evenodd" clip-rule="evenodd" d="M230.5 105C230.5 98.0964 224.904 92.5 218 92.5C211.097 92.5 205.5 98.0964 205.5 105V205.5H103C96.0965 205.5 90.5 211.096 90.5 218C90.5 224.904 96.0965 230.5 103 230.5H205.5V330C205.5 336.904 211.097 342.5 218 342.5C224.904 342.5 230.5 336.904 230.5 330V230.5H333C339.904 230.5 345.5 224.904 345.5 218C345.5 211.096 339.904 205.5 333 205.5H230.5V105Z" fill="#F97316"/>
<path d="M287 105H328" stroke="#F97316" stroke-width="22" stroke-linecap="round"/>
<path d="M151 105L104 105" stroke="#F97316" stroke-width="22" stroke-linecap="round"/>
<path d="M151 330L104 330" stroke="#F97316" stroke-width="22" stroke-linecap="round"/>
<path d="M287 330L334 330" stroke="#F97316" stroke-width="22" stroke-linecap="round"/>
<path d="M287 149H356" stroke="#F97316" stroke-width="22" stroke-linecap="round"/>
<path d="M151 149L72 149" stroke="#F97316" stroke-width="22" stroke-linecap="round"/>
<path d="M151 286L72 286" stroke="#F97316" stroke-width="22" stroke-linecap="round"/>
<path d="M287 286L366 286" stroke="#F97316" stroke-width="22" stroke-linecap="round"/>
</svg>
