<svg width="24" height="24" viewBox="0 0 24 24" fill="none" xmlns="http://www.w3.org/2000/svg">
<path fill-rule="evenodd" clip-rule="evenodd" d="M9.00044 4.5C9.1634 4.50003 9.32192 4.55315 9.45201 4.6513C9.5821 4.74945 9.67667 4.8873 9.72144 5.044L10.5344 7.89C10.7095 8.50292 11.0379 9.0611 11.4886 9.51183C11.9393 9.96255 12.4975 10.291 13.1104 10.466L15.9564 11.279C16.113 11.3239 16.2508 11.4185 16.3488 11.5486C16.4469 11.6786 16.4999 11.8371 16.4999 12C16.4999 12.1629 16.4469 12.3214 16.3488 12.4514C16.2508 12.5815 16.113 12.6761 15.9564 12.721L13.1104 13.534C12.4975 13.709 11.9393 14.0374 11.4886 14.4882C11.0379 14.9389 10.7095 15.4971 10.5344 16.11L9.72144 18.956C9.67658 19.1126 9.58195 19.2503 9.45187 19.3484C9.32179 19.4464 9.16333 19.4995 9.00044 19.4995C8.83754 19.4995 8.67908 19.4464 8.549 19.3484C8.41892 19.2503 8.32429 19.1126 8.27944 18.956L7.46644 16.11C7.29139 15.4971 6.96299 14.9389 6.51226 14.4882C6.06154 14.0374 5.50335 13.709 4.89044 13.534L2.04444 12.721C1.88784 12.6761 1.75011 12.5815 1.65206 12.4514C1.55401 12.3214 1.50098 12.1629 1.50098 12C1.50098 11.8371 1.55401 11.6786 1.65206 11.5486C1.75011 11.4185 1.88784 11.3239 2.04444 11.279L4.89044 10.466C5.50335 10.291 6.06154 9.96255 6.51226 9.51183C6.96299 9.0611 7.29139 8.50292 7.46644 7.89L8.27944 5.044C8.3242 4.8873 8.41878 4.74945 8.54887 4.6513C8.67895 4.55315 8.83747 4.50003 9.00044 4.5ZM18.0004 1.5C18.1678 1.49991 18.3303 1.55576 18.4622 1.65869C18.5941 1.76161 18.6878 1.90569 18.7284 2.068L18.9864 3.104C19.1023 3.56533 19.3412 3.98659 19.6775 4.32294C20.0138 4.65928 20.4351 4.89811 20.8964 5.014L21.9324 5.272C22.0951 5.31228 22.2395 5.40586 22.3428 5.5378C22.446 5.66974 22.5021 5.83246 22.5021 6C22.5021 6.16754 22.446 6.33026 22.3428 6.4622C22.2395 6.59414 22.0951 6.68772 21.9324 6.728L20.8964 6.986C20.4351 7.10189 20.0138 7.34072 19.6775 7.67706C19.3412 8.01341 19.1023 8.43467 18.9864 8.896L18.7284 9.932C18.6882 10.0946 18.5946 10.2391 18.4626 10.3423C18.3307 10.4456 18.168 10.5017 18.0004 10.5017C17.8329 10.5017 17.6702 10.4456 17.5382 10.3423C17.4063 10.2391 17.3127 10.0946 17.2724 9.932L17.0144 8.896C16.8985 8.43467 16.6597 8.01341 16.3234 7.67706C15.987 7.34072 15.5658 7.10189 15.1044 6.986L14.0684 6.728C13.9058 6.68772 13.7614 6.59414 13.6581 6.4622C13.5549 6.33026 13.4988 6.16754 13.4988 6C13.4988 5.83246 13.5549 5.66974 13.6581 5.5378C13.7614 5.40586 13.9058 5.31228 14.0684 5.272L15.1044 5.014C15.5658 4.89811 15.987 4.65928 16.3234 4.32294C16.6597 3.98659 16.8985 3.56533 17.0144 3.104L17.2724 2.068C17.313 1.90569 17.4067 1.76161 17.5387 1.65869C17.6706 1.55576 17.8331 1.49991 18.0004 1.5ZM16.5004 15C16.658 14.9999 16.8115 15.0494 16.9393 15.1415C17.0671 15.2336 17.1627 15.3636 17.2124 15.513L17.6064 16.696C17.7564 17.143 18.1064 17.495 18.5544 17.644L19.7374 18.039C19.8864 18.089 20.0159 18.1845 20.1076 18.3121C20.1994 18.4397 20.2487 18.5929 20.2487 18.75C20.2487 18.9071 20.1994 19.0603 20.1076 19.1879C20.0159 19.3155 19.8864 19.411 19.7374 19.461L18.5544 19.856C18.3337 19.9297 18.1332 20.0537 17.9686 20.2182C17.8041 20.3827 17.6801 20.5833 17.6064 20.804L17.2114 21.987C17.1614 22.136 17.0659 22.2655 16.9383 22.3572C16.8107 22.4489 16.6576 22.4983 16.5004 22.4983C16.3433 22.4983 16.1901 22.4489 16.0626 22.3572C15.935 22.2655 15.8394 22.136 15.7894 21.987L15.3944 20.804C15.3208 20.5833 15.1968 20.3827 15.0322 20.2182C14.8677 20.0537 14.6672 19.9297 14.4464 19.856L13.2634 19.461C13.1145 19.411 12.985 19.3155 12.8932 19.1879C12.8015 19.0603 12.7521 18.9071 12.7521 18.75C12.7521 18.5929 12.8015 18.4397 12.8932 18.3121C12.985 18.1845 13.1145 18.089 13.2634 18.039L14.4464 17.644C14.6672 17.5703 14.8677 17.4463 15.0322 17.2818C15.1968 17.1173 15.3208 16.9167 15.3944 16.696L15.7894 15.513C15.8392 15.3637 15.9346 15.2339 16.0622 15.1418C16.1898 15.0497 16.3431 15.0001 16.5004 15Z" fill="black"/>
</svg>
